<?xml version="1.0" encoding="UTF-8" standalone="no"?>
<svg
   width="400pt"
   height="100pt"
   viewBox="0 0 141.11112 35.277776"
   version="1.1"
   id="svg8"
   inkscape:version="1.1 (c4e8f9ed74, 2021-05-24)"
   sodipodi:docname="logo.svg"
   xmlns:inkscape="http://www.inkscape.org/namespaces/inkscape"
   xmlns:sodipodi="http://sodipodi.sourceforge.net/DTD/sodipodi-0.dtd"
   xmlns="http://www.w3.org/2000/svg"
   xmlns:svg="http://www.w3.org/2000/svg"
   xmlns:rdf="http://www.w3.org/1999/02/22-rdf-syntax-ns#"
   xmlns:cc="http://creativecommons.org/ns#"
   xmlns:dc="http://purl.org/dc/elements/1.1/">
  <defs
     id="defs2">
    <rect
       x="54.55518"
       y="24.534176"
       width="50.354645"
       height="26.168629"
       id="rect31" />
  </defs>
  <sodipodi:namedview
     id="base"
     pagecolor="#ffffff"
     bordercolor="#666666"
     borderopacity="1.0"
     inkscape:pageopacity="0.0"
     inkscape:pageshadow="2"
     inkscape:zoom="1.979899"
     inkscape:cx="269.45819"
     inkscape:cy="77.276669"
     inkscape:document-units="mm"
     inkscape:current-layer="layer1"
     inkscape:document-rotation="0"
     showgrid="false"
     inkscape:window-width="1280"
     inkscape:window-height="666"
     inkscape:window-x="0"
     inkscape:window-y="0"
     inkscape:window-maximized="1"
     inkscape:snap-global="false"
     units="pt"
     inkscape:pagecheckerboard="0" />
  <metadata
     id="metadata5">
    <rdf:RDF>
      <cc:Work
         rdf:about="">
        <dc:format>image/svg+xml</dc:format>
        <dc:type
           rdf:resource="http://purl.org/dc/dcmitype/StillImage" />
        <dc:title />
      </cc:Work>
    </rdf:RDF>
  </metadata>
  <g
     inkscape:label="Layer 1"
     inkscape:groupmode="layer"
     id="layer1">
    <text
       xml:space="preserve"
       id="text29"
       style="font-style:normal;font-variant:normal;font-weight:normal;font-stretch:normal;font-size:10.5833px;line-height:1.25;font-family:Hack;-inkscape-font-specification:Hack;white-space:pre;shape-inside:url(#rect31);fill:#000000;fill-opacity:1;stroke:none"
       transform="translate(-5.8004283,-19.099933)" />
    <path
       style="fill:#043343;fill-opacity:1;stroke-width:0.104513"
       d="M 7.0087854,17.177443 V 2.1928428 H 19.267032 31.525279 v 14.9846002 14.9846 H 19.267032 7.0087854 Z M 16.062137,29.91188 c -0.0013,-0.0408 -0.404459,-0.47476 -0.895999,-0.964355 l -0.893709,-0.890175 0.953019,-0.0286 c 1.233869,-0.03703 1.493931,0.07618 2.594005,1.129247 l 0.865031,0.828065 h 5.316051 c 2.923828,0 5.316051,-0.02625 5.316051,-0.05834 0,-0.03209 -0.347869,-0.403386 -0.773042,-0.825112 l -0.773043,-0.766774 v -1.746502 -1.746502 h 1.503158 1.503158 l -0.07706,-0.370906 c -0.129472,-0.623197 -0.921881,-1.873491 -1.404222,-2.21564 -0.437912,-0.310632 -1.079409,-0.566027 -1.44221,-0.574177 -0.182486,-0.0041 -0.193261,-0.467567 -0.193261,-8.312634 V 5.0611818 h -8.061728 -8.06173 v 5.0937752 5.093775 l 1.352824,-0.0028 1.352825,-0.0028 0.938694,-1.293534 c 1.00351,-1.382854 1.663133,-2.001086 2.305582,-2.160914 0.220037,-0.05474 1.61761,-0.0988 3.105717,-0.09791 3.683114,0.0022 3.497911,-0.08327 4.959253,2.288797 0.972406,1.57842 1.07049,1.931474 0.664899,2.393282 -0.263621,0.300161 -0.791643,0.351639 -1.170303,0.114097 -0.128455,-0.08058 -0.623497,-0.770467 -1.100094,-1.533078 l -0.866542,-1.38658 H 22.06019 c -1.171149,0 -1.125631,-0.118072 -0.438503,1.137444 1.108048,2.02462 1.309968,2.767953 1.544883,5.687225 l 0.131327,1.631986 2.098259,0.08197 c 2.45679,0.09598 3.053199,0.2146 3.638463,0.723677 0.393243,0.342051 0.826236,1.01683 0.831715,1.296152 0.0019,0.09668 -0.873098,0.123636 -4.013546,0.123636 -3.883704,0 -4.025469,-0.0067 -4.304291,-0.20312 -0.381599,-0.268837 -0.463787,-0.598853 -0.688379,-2.764128 -0.104388,-1.006391 -0.219787,-1.860065 -0.256442,-1.897054 -0.03665,-0.03699 -0.362613,0.519371 -0.724351,1.236353 -3.431673,6.80174 -3.308639,6.581145 -3.766025,6.752307 -0.223095,0.08348 -0.754879,0.139614 -1.322767,0.139614 -0.897285,0 -0.945842,-0.01084 -0.880053,-0.196487 0.0383,-0.108067 1.063002,-2.233358 2.277123,-4.722869 1.214122,-2.48951 2.214807,-4.596365 2.223746,-4.681899 0.01901,-0.181929 -1.34707,-3.061042 -1.449408,-3.05473 -0.03809,0.0023 -0.392276,0.431558 -0.78708,0.953799 -0.968074,1.280552 -1.052431,1.31682 -3.062839,1.31682 h -1.575416 v 5.584052 5.584051 l 0.846207,0.844985 0.846208,0.844984 h 1.417703 c 0.779736,0 1.416672,-0.03338 1.415413,-0.07418 z m 0.486939,-18.807876 c -0.475587,-0.259736 -0.791161,-0.689396 -0.945133,-1.2868202 -0.343844,-1.334136 0.91879,-2.646139 2.212486,-2.298993 1.002946,0.269127 1.497159,0.958642 1.431625,1.997376 -0.04694,0.7440802 -0.378129,1.2969932 -0.961856,1.6058202 -0.436403,0.230883 -1.298328,0.222258 -1.737122,-0.01738 z"
       id="path116" />
  </g>
</svg>
